<mxfile host="app.diagrams.net" agent="Mozilla/5.0 (Macintosh; Intel Mac OS X 10.15; rv:131.0) Gecko/20100101 Firefox/131.0" version="24.7.17">
  <diagram name="Page-1" id="jL8mQO_E5wvyLZK8uviz">
    <mxGraphModel dx="754" dy="425" grid="0" gridSize="10" guides="1" tooltips="1" connect="1" arrows="1" fold="1" page="1" pageScale="1" pageWidth="850" pageHeight="1100" math="0" shadow="0">
      <root>
        <mxCell id="0" />
        <mxCell id="1" parent="0" />
        <mxCell id="zlsG9hN62pAIyLV8cQkl-1" value="OCI registry" style="shape=cylinder3;whiteSpace=wrap;html=1;boundedLbl=1;backgroundOutline=1;size=15;" parent="1" vertex="1">
          <mxGeometry x="490" y="360" width="60" height="80" as="geometry" />
        </mxCell>
        <mxCell id="zlsG9hN62pAIyLV8cQkl-2" value="Git" style="shape=cylinder3;whiteSpace=wrap;html=1;boundedLbl=1;backgroundOutline=1;size=15;" parent="1" vertex="1">
          <mxGeometry x="290" y="360" width="60" height="80" as="geometry" />
        </mxCell>
        <mxCell id="zlsG9hN62pAIyLV8cQkl-7" style="edgeStyle=orthogonalEdgeStyle;rounded=0;orthogonalLoop=1;jettySize=auto;html=1;" parent="1" source="zlsG9hN62pAIyLV8cQkl-3" edge="1">
          <mxGeometry relative="1" as="geometry">
            <mxPoint x="320" y="440.0000000000001" as="targetPoint" />
          </mxGeometry>
        </mxCell>
        <mxCell id="zlsG9hN62pAIyLV8cQkl-8" value="&lt;div&gt;write&lt;/div&gt;" style="edgeLabel;html=1;align=center;verticalAlign=middle;resizable=0;points=[];" parent="zlsG9hN62pAIyLV8cQkl-7" vertex="1" connectable="0">
          <mxGeometry x="-0.1667" y="2" relative="1" as="geometry">
            <mxPoint as="offset" />
          </mxGeometry>
        </mxCell>
        <mxCell id="zlsG9hN62pAIyLV8cQkl-3" value="&lt;div&gt;Engineers&lt;/div&gt;" style="shape=umlActor;verticalLabelPosition=bottom;verticalAlign=top;html=1;outlineConnect=0;" parent="1" vertex="1">
          <mxGeometry x="305" y="590" width="30" height="60" as="geometry" />
        </mxCell>
        <mxCell id="zlsG9hN62pAIyLV8cQkl-10" style="edgeStyle=orthogonalEdgeStyle;rounded=0;orthogonalLoop=1;jettySize=auto;html=1;exitX=0.5;exitY=0;exitDx=0;exitDy=0;fillColor=#d5e8d4;strokeColor=#82b366;" parent="1" source="zlsG9hN62pAIyLV8cQkl-6" edge="1">
          <mxGeometry relative="1" as="geometry">
            <mxPoint x="520.0952380952381" y="440.0000000000001" as="targetPoint" />
          </mxGeometry>
        </mxCell>
        <mxCell id="zlsG9hN62pAIyLV8cQkl-11" value="read" style="edgeLabel;html=1;align=center;verticalAlign=middle;resizable=0;points=[];" parent="zlsG9hN62pAIyLV8cQkl-10" vertex="1" connectable="0">
          <mxGeometry x="0.0181" y="1" relative="1" as="geometry">
            <mxPoint as="offset" />
          </mxGeometry>
        </mxCell>
        <mxCell id="zlsG9hN62pAIyLV8cQkl-6" value="GitOps controller" style="whiteSpace=wrap;html=1;aspect=fixed;" parent="1" vertex="1">
          <mxGeometry x="490" y="590" width="60" height="60" as="geometry" />
        </mxCell>
        <mxCell id="zlsG9hN62pAIyLV8cQkl-9" value="write" style="edgeStyle=orthogonalEdgeStyle;rounded=0;orthogonalLoop=1;jettySize=auto;html=1;entryX=0;entryY=0.5;entryDx=0;entryDy=0;entryPerimeter=0;dashed=1;" parent="1" source="zlsG9hN62pAIyLV8cQkl-2" target="zlsG9hN62pAIyLV8cQkl-1" edge="1">
          <mxGeometry relative="1" as="geometry" />
        </mxCell>
        <mxCell id="zlsG9hN62pAIyLV8cQkl-12" style="rounded=0;orthogonalLoop=1;jettySize=auto;html=1;exitX=0.5;exitY=0;exitDx=0;exitDy=0;entryX=0.855;entryY=1;entryDx=0;entryDy=-4.35;entryPerimeter=0;strokeColor=#b85450;fillColor=#f8cecc;" parent="1" source="zlsG9hN62pAIyLV8cQkl-6" target="zlsG9hN62pAIyLV8cQkl-2" edge="1">
          <mxGeometry relative="1" as="geometry" />
        </mxCell>
        <mxCell id="zlsG9hN62pAIyLV8cQkl-13" value="&lt;div&gt;read&lt;/div&gt;" style="edgeLabel;html=1;align=center;verticalAlign=middle;resizable=0;points=[];" parent="zlsG9hN62pAIyLV8cQkl-12" vertex="1" connectable="0">
          <mxGeometry x="0.1961" y="1" relative="1" as="geometry">
            <mxPoint as="offset" />
          </mxGeometry>
        </mxCell>
        <mxCell id="vCvrfWAKihV9GZR7NiI2-1" value="k8s-deploy" style="shape=cylinder3;whiteSpace=wrap;html=1;boundedLbl=1;backgroundOutline=1;size=15;fillColor=#dae8fc;strokeColor=#6c8ebf;" vertex="1" parent="1">
          <mxGeometry x="280" y="1160" width="80" height="70" as="geometry" />
        </mxCell>
        <mxCell id="vCvrfWAKihV9GZR7NiI2-2" value="OCI registry" style="shape=cylinder3;whiteSpace=wrap;html=1;boundedLbl=1;backgroundOutline=1;size=15;fillColor=#dae8fc;strokeColor=#6c8ebf;" vertex="1" parent="1">
          <mxGeometry x="280" y="1300" width="80" height="70" as="geometry" />
        </mxCell>
        <mxCell id="vCvrfWAKihV9GZR7NiI2-3" value="my-service repo" style="shape=cylinder3;whiteSpace=wrap;html=1;boundedLbl=1;backgroundOutline=1;size=15;fillColor=#d5e8d4;strokeColor=#82b366;" vertex="1" parent="1">
          <mxGeometry x="110" y="1230" width="80" height="70" as="geometry" />
        </mxCell>
        <mxCell id="vCvrfWAKihV9GZR7NiI2-19" style="edgeStyle=orthogonalEdgeStyle;rounded=0;orthogonalLoop=1;jettySize=auto;html=1;entryX=0;entryY=0.5;entryDx=0;entryDy=0;fillColor=#dae8fc;strokeColor=#6c8ebf;" edge="1" parent="1" source="vCvrfWAKihV9GZR7NiI2-5" target="vCvrfWAKihV9GZR7NiI2-6">
          <mxGeometry relative="1" as="geometry" />
        </mxCell>
        <mxCell id="vCvrfWAKihV9GZR7NiI2-20" value="&lt;div&gt;4.&lt;/div&gt;&lt;div&gt;create&lt;/div&gt;" style="edgeLabel;html=1;align=center;verticalAlign=middle;resizable=0;points=[];" vertex="1" connectable="0" parent="vCvrfWAKihV9GZR7NiI2-19">
          <mxGeometry x="-0.3298" y="-1" relative="1" as="geometry">
            <mxPoint x="10" y="-1" as="offset" />
          </mxGeometry>
        </mxCell>
        <mxCell id="vCvrfWAKihV9GZR7NiI2-5" value="root app" style="rounded=0;whiteSpace=wrap;html=1;fillColor=#dae8fc;strokeColor=#6c8ebf;" vertex="1" parent="1">
          <mxGeometry x="480" y="1160" width="70" height="70" as="geometry" />
        </mxCell>
        <mxCell id="vCvrfWAKihV9GZR7NiI2-6" value="my-service app" style="rounded=0;whiteSpace=wrap;html=1;fillColor=#dae8fc;strokeColor=#6c8ebf;" vertex="1" parent="1">
          <mxGeometry x="610" y="1160" width="70" height="70" as="geometry" />
        </mxCell>
        <mxCell id="vCvrfWAKihV9GZR7NiI2-8" value="k8s" style="rounded=0;whiteSpace=wrap;html=1;fillColor=#dae8fc;strokeColor=#6c8ebf;" vertex="1" parent="1">
          <mxGeometry x="740" y="1160" width="70" height="210" as="geometry" />
        </mxCell>
        <mxCell id="vCvrfWAKihV9GZR7NiI2-10" style="edgeStyle=orthogonalEdgeStyle;rounded=0;orthogonalLoop=1;jettySize=auto;html=1;entryX=0;entryY=0.167;entryDx=0;entryDy=0;entryPerimeter=0;fillColor=#dae8fc;strokeColor=#6c8ebf;" edge="1" parent="1" source="vCvrfWAKihV9GZR7NiI2-6" target="vCvrfWAKihV9GZR7NiI2-8">
          <mxGeometry relative="1" as="geometry" />
        </mxCell>
        <mxCell id="vCvrfWAKihV9GZR7NiI2-21" value="6.&lt;div&gt;apply&lt;/div&gt;" style="edgeLabel;html=1;align=center;verticalAlign=middle;resizable=0;points=[];" vertex="1" connectable="0" parent="vCvrfWAKihV9GZR7NiI2-10">
          <mxGeometry x="-0.2093" relative="1" as="geometry">
            <mxPoint x="6" as="offset" />
          </mxGeometry>
        </mxCell>
        <mxCell id="vCvrfWAKihV9GZR7NiI2-12" style="edgeStyle=orthogonalEdgeStyle;rounded=0;orthogonalLoop=1;jettySize=auto;html=1;entryX=0;entryY=0;entryDx=0;entryDy=45;entryPerimeter=0;exitX=0.5;exitY=0;exitDx=0;exitDy=0;exitPerimeter=0;fillColor=#d5e8d4;strokeColor=#82b366;" edge="1" parent="1" source="vCvrfWAKihV9GZR7NiI2-3" target="vCvrfWAKihV9GZR7NiI2-1">
          <mxGeometry relative="1" as="geometry" />
        </mxCell>
        <mxCell id="vCvrfWAKihV9GZR7NiI2-13" value="&lt;div&gt;2.&lt;/div&gt;&lt;div&gt;update manifests&lt;/div&gt;" style="edgeLabel;html=1;align=center;verticalAlign=middle;resizable=0;points=[];" vertex="1" connectable="0" parent="vCvrfWAKihV9GZR7NiI2-12">
          <mxGeometry x="-0.0972" y="-1" relative="1" as="geometry">
            <mxPoint x="23" y="-3" as="offset" />
          </mxGeometry>
        </mxCell>
        <mxCell id="vCvrfWAKihV9GZR7NiI2-15" style="edgeStyle=orthogonalEdgeStyle;rounded=0;orthogonalLoop=1;jettySize=auto;html=1;entryX=0.014;entryY=0.568;entryDx=0;entryDy=0;entryPerimeter=0;exitX=0.5;exitY=1;exitDx=0;exitDy=0;exitPerimeter=0;fillColor=#d5e8d4;strokeColor=#82b366;" edge="1" parent="1" source="vCvrfWAKihV9GZR7NiI2-3" target="vCvrfWAKihV9GZR7NiI2-2">
          <mxGeometry relative="1" as="geometry" />
        </mxCell>
        <mxCell id="vCvrfWAKihV9GZR7NiI2-16" value="1.&lt;div&gt;build and push&lt;/div&gt;&lt;div&gt;chart + app image&lt;/div&gt;" style="edgeLabel;html=1;align=center;verticalAlign=middle;resizable=0;points=[];" vertex="1" connectable="0" parent="vCvrfWAKihV9GZR7NiI2-15">
          <mxGeometry x="-0.2621" y="2" relative="1" as="geometry">
            <mxPoint x="37" y="2" as="offset" />
          </mxGeometry>
        </mxCell>
        <mxCell id="vCvrfWAKihV9GZR7NiI2-17" style="edgeStyle=orthogonalEdgeStyle;rounded=0;orthogonalLoop=1;jettySize=auto;html=1;entryX=1;entryY=0.5;entryDx=0;entryDy=0;entryPerimeter=0;fillColor=#dae8fc;strokeColor=#6c8ebf;" edge="1" parent="1" source="vCvrfWAKihV9GZR7NiI2-5" target="vCvrfWAKihV9GZR7NiI2-1">
          <mxGeometry relative="1" as="geometry" />
        </mxCell>
        <mxCell id="vCvrfWAKihV9GZR7NiI2-18" value="&lt;div&gt;3.&lt;/div&gt;&lt;div&gt;pull manifests&lt;/div&gt;" style="edgeLabel;html=1;align=center;verticalAlign=middle;resizable=0;points=[];" vertex="1" connectable="0" parent="vCvrfWAKihV9GZR7NiI2-17">
          <mxGeometry x="0.2965" y="-1" relative="1" as="geometry">
            <mxPoint x="23" y="1" as="offset" />
          </mxGeometry>
        </mxCell>
        <mxCell id="vCvrfWAKihV9GZR7NiI2-22" style="edgeStyle=orthogonalEdgeStyle;rounded=0;orthogonalLoop=1;jettySize=auto;html=1;entryX=1;entryY=1;entryDx=0;entryDy=-15;entryPerimeter=0;exitX=-0.003;exitY=0.932;exitDx=0;exitDy=0;exitPerimeter=0;fillColor=#dae8fc;strokeColor=#6c8ebf;" edge="1" parent="1" source="vCvrfWAKihV9GZR7NiI2-8" target="vCvrfWAKihV9GZR7NiI2-2">
          <mxGeometry relative="1" as="geometry">
            <mxPoint x="780" y="1355" as="sourcePoint" />
          </mxGeometry>
        </mxCell>
        <mxCell id="vCvrfWAKihV9GZR7NiI2-24" value="7. pull app image" style="edgeLabel;html=1;align=center;verticalAlign=middle;resizable=0;points=[];" vertex="1" connectable="0" parent="vCvrfWAKihV9GZR7NiI2-22">
          <mxGeometry x="0.2136" y="-1" relative="1" as="geometry">
            <mxPoint x="5" as="offset" />
          </mxGeometry>
        </mxCell>
        <mxCell id="vCvrfWAKihV9GZR7NiI2-25" style="edgeStyle=orthogonalEdgeStyle;rounded=0;orthogonalLoop=1;jettySize=auto;html=1;entryX=1.008;entryY=0.583;entryDx=0;entryDy=0;entryPerimeter=0;exitX=0.5;exitY=1;exitDx=0;exitDy=0;fillColor=#dae8fc;strokeColor=#6c8ebf;" edge="1" parent="1" source="vCvrfWAKihV9GZR7NiI2-6" target="vCvrfWAKihV9GZR7NiI2-2">
          <mxGeometry relative="1" as="geometry" />
        </mxCell>
        <mxCell id="vCvrfWAKihV9GZR7NiI2-26" value="5. pull chart" style="edgeLabel;html=1;align=center;verticalAlign=middle;resizable=0;points=[];" vertex="1" connectable="0" parent="vCvrfWAKihV9GZR7NiI2-25">
          <mxGeometry x="-0.0708" y="1" relative="1" as="geometry">
            <mxPoint x="-57" as="offset" />
          </mxGeometry>
        </mxCell>
        <mxCell id="vCvrfWAKihV9GZR7NiI2-48" value="k8s-deploy" style="shape=cylinder3;whiteSpace=wrap;html=1;boundedLbl=1;backgroundOutline=1;size=15;fillColor=#d5e8d4;strokeColor=#82b366;" vertex="1" parent="1">
          <mxGeometry x="280" y="1420" width="80" height="70" as="geometry" />
        </mxCell>
        <mxCell id="vCvrfWAKihV9GZR7NiI2-49" value="OCI registry" style="shape=cylinder3;whiteSpace=wrap;html=1;boundedLbl=1;backgroundOutline=1;size=15;fillColor=#dae8fc;strokeColor=#6c8ebf;" vertex="1" parent="1">
          <mxGeometry x="280" y="1560" width="80" height="70" as="geometry" />
        </mxCell>
        <mxCell id="vCvrfWAKihV9GZR7NiI2-50" value="my-service repo" style="shape=cylinder3;whiteSpace=wrap;html=1;boundedLbl=1;backgroundOutline=1;size=15;fillColor=#d5e8d4;strokeColor=#82b366;" vertex="1" parent="1">
          <mxGeometry x="110" y="1490" width="80" height="70" as="geometry" />
        </mxCell>
        <mxCell id="vCvrfWAKihV9GZR7NiI2-51" style="edgeStyle=orthogonalEdgeStyle;rounded=0;orthogonalLoop=1;jettySize=auto;html=1;entryX=0;entryY=0.5;entryDx=0;entryDy=0;fillColor=#dae8fc;strokeColor=#6c8ebf;" edge="1" parent="1" source="vCvrfWAKihV9GZR7NiI2-53" target="vCvrfWAKihV9GZR7NiI2-54">
          <mxGeometry relative="1" as="geometry" />
        </mxCell>
        <mxCell id="vCvrfWAKihV9GZR7NiI2-52" value="&lt;div&gt;5.&lt;/div&gt;&lt;div&gt;create&lt;/div&gt;" style="edgeLabel;html=1;align=center;verticalAlign=middle;resizable=0;points=[];" vertex="1" connectable="0" parent="vCvrfWAKihV9GZR7NiI2-51">
          <mxGeometry x="-0.3298" y="-1" relative="1" as="geometry">
            <mxPoint x="10" y="-1" as="offset" />
          </mxGeometry>
        </mxCell>
        <mxCell id="vCvrfWAKihV9GZR7NiI2-53" value="root app" style="rounded=0;whiteSpace=wrap;html=1;fillColor=#dae8fc;strokeColor=#6c8ebf;" vertex="1" parent="1">
          <mxGeometry x="480" y="1420" width="70" height="70" as="geometry" />
        </mxCell>
        <mxCell id="vCvrfWAKihV9GZR7NiI2-54" value="my-service app" style="rounded=0;whiteSpace=wrap;html=1;fillColor=#dae8fc;strokeColor=#6c8ebf;" vertex="1" parent="1">
          <mxGeometry x="610" y="1420" width="70" height="70" as="geometry" />
        </mxCell>
        <mxCell id="vCvrfWAKihV9GZR7NiI2-55" value="k8s" style="rounded=0;whiteSpace=wrap;html=1;fillColor=#dae8fc;strokeColor=#6c8ebf;" vertex="1" parent="1">
          <mxGeometry x="740" y="1420" width="70" height="210" as="geometry" />
        </mxCell>
        <mxCell id="vCvrfWAKihV9GZR7NiI2-56" style="edgeStyle=orthogonalEdgeStyle;rounded=0;orthogonalLoop=1;jettySize=auto;html=1;entryX=0;entryY=0.167;entryDx=0;entryDy=0;entryPerimeter=0;fillColor=#dae8fc;strokeColor=#6c8ebf;" edge="1" parent="1" source="vCvrfWAKihV9GZR7NiI2-54" target="vCvrfWAKihV9GZR7NiI2-55">
          <mxGeometry relative="1" as="geometry" />
        </mxCell>
        <mxCell id="vCvrfWAKihV9GZR7NiI2-57" value="7.&lt;div&gt;apply&lt;/div&gt;" style="edgeLabel;html=1;align=center;verticalAlign=middle;resizable=0;points=[];" vertex="1" connectable="0" parent="vCvrfWAKihV9GZR7NiI2-56">
          <mxGeometry x="-0.2093" relative="1" as="geometry">
            <mxPoint x="6" as="offset" />
          </mxGeometry>
        </mxCell>
        <mxCell id="vCvrfWAKihV9GZR7NiI2-58" style="edgeStyle=orthogonalEdgeStyle;rounded=0;orthogonalLoop=1;jettySize=auto;html=1;entryX=0;entryY=0;entryDx=0;entryDy=45;entryPerimeter=0;exitX=0.5;exitY=0;exitDx=0;exitDy=0;exitPerimeter=0;fillColor=#d5e8d4;strokeColor=#82b366;" edge="1" parent="1" source="vCvrfWAKihV9GZR7NiI2-50" target="vCvrfWAKihV9GZR7NiI2-48">
          <mxGeometry relative="1" as="geometry" />
        </mxCell>
        <mxCell id="vCvrfWAKihV9GZR7NiI2-59" value="2.&lt;br&gt;&lt;div&gt;update manifests&lt;/div&gt;" style="edgeLabel;html=1;align=center;verticalAlign=middle;resizable=0;points=[];" vertex="1" connectable="0" parent="vCvrfWAKihV9GZR7NiI2-58">
          <mxGeometry x="-0.0972" y="-1" relative="1" as="geometry">
            <mxPoint x="23" y="-3" as="offset" />
          </mxGeometry>
        </mxCell>
        <mxCell id="vCvrfWAKihV9GZR7NiI2-60" style="edgeStyle=orthogonalEdgeStyle;rounded=0;orthogonalLoop=1;jettySize=auto;html=1;entryX=0.014;entryY=0.568;entryDx=0;entryDy=0;entryPerimeter=0;exitX=0.5;exitY=1;exitDx=0;exitDy=0;exitPerimeter=0;fillColor=#d5e8d4;strokeColor=#82b366;" edge="1" parent="1" source="vCvrfWAKihV9GZR7NiI2-50" target="vCvrfWAKihV9GZR7NiI2-49">
          <mxGeometry relative="1" as="geometry" />
        </mxCell>
        <mxCell id="vCvrfWAKihV9GZR7NiI2-61" value="&lt;div&gt;1.&lt;br&gt;&lt;/div&gt;&lt;div&gt;build and push&lt;/div&gt;&lt;div&gt;chart + app image&lt;/div&gt;" style="edgeLabel;html=1;align=center;verticalAlign=middle;resizable=0;points=[];" vertex="1" connectable="0" parent="vCvrfWAKihV9GZR7NiI2-60">
          <mxGeometry x="-0.2621" y="2" relative="1" as="geometry">
            <mxPoint x="37" y="2" as="offset" />
          </mxGeometry>
        </mxCell>
        <mxCell id="vCvrfWAKihV9GZR7NiI2-62" style="edgeStyle=orthogonalEdgeStyle;rounded=0;orthogonalLoop=1;jettySize=auto;html=1;entryX=1;entryY=0.429;entryDx=0;entryDy=0;entryPerimeter=0;fillColor=#dae8fc;strokeColor=#6c8ebf;exitX=0.5;exitY=1;exitDx=0;exitDy=0;" edge="1" parent="1" source="vCvrfWAKihV9GZR7NiI2-53" target="vCvrfWAKihV9GZR7NiI2-49">
          <mxGeometry relative="1" as="geometry" />
        </mxCell>
        <mxCell id="vCvrfWAKihV9GZR7NiI2-63" value="4. pull bundle" style="edgeLabel;html=1;align=center;verticalAlign=middle;resizable=0;points=[];" vertex="1" connectable="0" parent="vCvrfWAKihV9GZR7NiI2-62">
          <mxGeometry x="0.2965" y="-1" relative="1" as="geometry">
            <mxPoint x="23" y="1" as="offset" />
          </mxGeometry>
        </mxCell>
        <mxCell id="vCvrfWAKihV9GZR7NiI2-64" style="edgeStyle=orthogonalEdgeStyle;rounded=0;orthogonalLoop=1;jettySize=auto;html=1;entryX=1;entryY=1;entryDx=0;entryDy=-15;entryPerimeter=0;exitX=-0.003;exitY=0.932;exitDx=0;exitDy=0;exitPerimeter=0;fillColor=#dae8fc;strokeColor=#6c8ebf;" edge="1" parent="1" source="vCvrfWAKihV9GZR7NiI2-55" target="vCvrfWAKihV9GZR7NiI2-49">
          <mxGeometry relative="1" as="geometry">
            <mxPoint x="780" y="1615" as="sourcePoint" />
          </mxGeometry>
        </mxCell>
        <mxCell id="vCvrfWAKihV9GZR7NiI2-65" value="8. pull app image" style="edgeLabel;html=1;align=center;verticalAlign=middle;resizable=0;points=[];" vertex="1" connectable="0" parent="vCvrfWAKihV9GZR7NiI2-64">
          <mxGeometry x="0.2136" y="-1" relative="1" as="geometry">
            <mxPoint x="5" as="offset" />
          </mxGeometry>
        </mxCell>
        <mxCell id="vCvrfWAKihV9GZR7NiI2-66" style="edgeStyle=orthogonalEdgeStyle;rounded=0;orthogonalLoop=1;jettySize=auto;html=1;entryX=1.008;entryY=0.583;entryDx=0;entryDy=0;entryPerimeter=0;exitX=0.5;exitY=1;exitDx=0;exitDy=0;fillColor=#dae8fc;strokeColor=#6c8ebf;" edge="1" parent="1" source="vCvrfWAKihV9GZR7NiI2-54" target="vCvrfWAKihV9GZR7NiI2-49">
          <mxGeometry relative="1" as="geometry" />
        </mxCell>
        <mxCell id="vCvrfWAKihV9GZR7NiI2-67" value="6. pull chart" style="edgeLabel;html=1;align=center;verticalAlign=middle;resizable=0;points=[];" vertex="1" connectable="0" parent="vCvrfWAKihV9GZR7NiI2-66">
          <mxGeometry x="-0.0708" y="1" relative="1" as="geometry">
            <mxPoint x="-57" as="offset" />
          </mxGeometry>
        </mxCell>
        <mxCell id="vCvrfWAKihV9GZR7NiI2-68" style="edgeStyle=orthogonalEdgeStyle;rounded=0;orthogonalLoop=1;jettySize=auto;html=1;fillColor=#d5e8d4;strokeColor=#82b366;" edge="1" parent="1" source="vCvrfWAKihV9GZR7NiI2-48">
          <mxGeometry relative="1" as="geometry">
            <mxPoint x="320" y="1560" as="targetPoint" />
          </mxGeometry>
        </mxCell>
        <mxCell id="vCvrfWAKihV9GZR7NiI2-70" value="3.&lt;br&gt;&lt;div&gt;build and push bundle&lt;/div&gt;" style="edgeLabel;html=1;align=center;verticalAlign=middle;resizable=0;points=[];" vertex="1" connectable="0" parent="vCvrfWAKihV9GZR7NiI2-68">
          <mxGeometry x="0.0675" y="2" relative="1" as="geometry">
            <mxPoint as="offset" />
          </mxGeometry>
        </mxCell>
      </root>
    </mxGraphModel>
  </diagram>
</mxfile>
